<?xml version="1.0" encoding="utf-8" standalone="no"?>
<!DOCTYPE svg PUBLIC "-//W3C//DTD SVG 1.1//EN"
  "http://www.w3.org/Graphics/SVG/1.1/DTD/svg11.dtd">
<svg xmlns:xlink="http://www.w3.org/1999/xlink" width="864pt" height="417.6pt" viewBox="0 0 864 417.6" xmlns="http://www.w3.org/2000/svg" version="1.1">
 <metadata>
  <rdf:RDF xmlns:dc="http://purl.org/dc/elements/1.1/" xmlns:cc="http://creativecommons.org/ns#" xmlns:rdf="http://www.w3.org/1999/02/22-rdf-syntax-ns#">
   <cc:Work>
    <dc:type rdf:resource="http://purl.org/dc/dcmitype/StillImage"/>
    <dc:format>image/svg+xml</dc:format>
    <dc:creator>
     <cc:Agent>
      <dc:title>Matplotlib v3.11.2, https://matplotlib.org/</dc:title>
     </cc:Agent>
    </dc:creator>
   </cc:Work>
  </rdf:RDF>
 </metadata>
 <defs>
  <style type="text/css">*{stroke-linejoin: round; stroke-linecap: butt}</style>
 </defs>
 <g id="figure_1">
  <g id="patch_1">
   <path d="M 0 417.6
L 864 417.6
L 864 0
L 0 0
z
" style="fill: #ffffff"/>
  </g>
  <g id="axes_1">
   <g id="patch_2">
    <path d="M 40.904224 364.980857
L 860.99976 364.980857
L 860.99976 43.075107
L 40.904224 43.075107
z
" style="fill: #ffffff"/>
   </g>
   <g id="patch_3">
    <path d="M 78.181294 364.980857
L 123.982472 364.980857
L 123.982472 196.913048
L 78.181294 196.913048
z
" clip-path="url(#p7931220fef)" style="fill: #8b9693"/>
   </g>
   <g id="patch_4">
    <path d="M 141.794041 364.980857
L 187.595219 364.980857
L 187.595219 240.002075
L 141.794041 240.002075
z
" clip-path="url(#p7931220fef)" style="fill: #8b9693"/>
   </g>
   <g id="patch_5">
    <path d="M 205.406788 364.980857
L 251.207966 364.980857
L 251.207966 46.840913
L 205.406788 46.840913
z
" clip-path="url(#p7931220fef)" style="fill: #8b9693"/>
   </g>
   <g id="patch_6">
    <path d="M 269.019535 364.980857
L 314.820713 364.980857
L 314.820713 56.389501
L 269.019535 56.389501
z
" clip-path="url(#p7931220fef)" style="fill: #8b9693"/>
   </g>
   <g id="patch_7">
    <path d="M 332.632283 364.980857
L 378.43346 364.980857
L 378.43346 54.499452
L 332.632283 54.499452
z
" clip-path="url(#p7931220fef)" style="fill: #8b9693"/>
   </g>
   <g id="patch_8">
    <path d="M 396.24503 364.980857
L 442.046208 364.980857
L 442.046208 88.83294
L 396.24503 88.83294
z
" clip-path="url(#p7931220fef)" style="fill: #8b9693"/>
   </g>
   <g id="patch_9">
    <path d="M 459.857777 364.980857
L 505.658955 364.980857
L 505.658955 59.918514
L 459.857777 59.918514
z
" clip-path="url(#p7931220fef)" style="fill: #8b9693"/>
   </g>
   <g id="patch_10">
    <path d="M 523.470524 364.980857
L 569.271702 364.980857
L 569.271702 50.720595
L 523.470524 50.720595
z
" clip-path="url(#p7931220fef)" style="fill: #8b9693"/>
   </g>
   <g id="patch_11">
    <path d="M 587.083271 364.980857
L 632.884449 364.980857
L 632.884449 181.192894
L 587.083271 181.192894
z
" clip-path="url(#p7931220fef)" style="fill: #8b9693"/>
   </g>
   <g id="patch_12">
    <path d="M 650.696018 364.980857
L 696.497196 364.980857
L 696.497196 320.761713
L 650.696018 320.761713
z
" clip-path="url(#p7931220fef)" style="fill: #8b9693"/>
   </g>
   <g id="patch_13">
    <path d="M 714.308765 364.980857
L 760.109943 364.980857
L 760.109943 247.205823
L 714.308765 247.205823
z
" clip-path="url(#p7931220fef)" style="fill: #8b9693"/>
   </g>
   <g id="patch_14">
    <path d="M 777.921512 364.980857
L 823.72269 364.980857
L 823.72269 137.384591
L 777.921512 137.384591
z
" clip-path="url(#p7931220fef)" style="fill: #8b9693"/>
   </g>
   <g id="patch_15">
    <path d="M 78.181294 196.913048
L 123.982472 196.913048
L 123.982472 47.637543
L 78.181294 47.637543
z
" clip-path="url(#p7931220fef)" style="fill: #86bfa5"/>
   </g>
   <g id="patch_16">
    <path d="M 141.794041 240.002075
L 187.595219 240.002075
L 187.595219 45.628017
L 141.794041 45.628017
z
" clip-path="url(#p7931220fef)" style="fill: #86bfa5"/>
   </g>
   <g id="patch_17">
    <path d="M 205.406788 46.840913
L 251.207966 46.840913
L 251.207966 46.530725
L 205.406788 46.530725
z
" clip-path="url(#p7931220fef)" style="fill: #86bfa5"/>
   </g>
   <g id="patch_18">
    <path d="M 269.019535 56.389501
L 314.820713 56.389501
L 314.820713 54.723646
L 269.019535 54.723646
z
" clip-path="url(#p7931220fef)" style="fill: #86bfa5"/>
   </g>
   <g id="patch_19">
    <path d="M 332.632283 54.499452
L 378.43346 54.499452
L 378.43346 52.802557
L 332.632283 52.802557
z
" clip-path="url(#p7931220fef)" style="fill: #86bfa5"/>
   </g>
   <g id="patch_20">
    <path d="M 396.24503 88.83294
L 442.046208 88.83294
L 442.046208 88.139507
L 396.24503 88.139507
z
" clip-path="url(#p7931220fef)" style="fill: #86bfa5"/>
   </g>
   <g id="patch_21">
    <path d="M 459.857777 59.918514
L 505.658955 59.918514
L 505.658955 59.132152
L 459.857777 59.132152
z
" clip-path="url(#p7931220fef)" style="fill: #86bfa5"/>
   </g>
   <g id="patch_22">
    <path d="M 523.470524 50.720595
L 569.271702 50.720595
L 569.271702 49.225245
L 523.470524 49.225245
z
" clip-path="url(#p7931220fef)" style="fill: #86bfa5"/>
   </g>
   <g id="patch_23">
    <path d="M 587.083271 181.192894
L 632.884449 181.192894
L 632.884449 71.634598
L 587.083271 71.634598
z
" clip-path="url(#p7931220fef)" style="fill: #86bfa5"/>
   </g>
   <g id="patch_24">
    <path d="M 650.696018 320.761713
L 696.497196 320.761713
L 696.497196 293.291866
L 650.696018 293.291866
z
" clip-path="url(#p7931220fef)" style="fill: #86bfa5"/>
   </g>
   <g id="patch_25">
    <path d="M 714.308765 247.205823
L 760.109943 247.205823
L 760.109943 60.271547
L 714.308765 60.271547
z
" clip-path="url(#p7931220fef)" style="fill: #86bfa5"/>
   </g>
   <g id="patch_26">
    <path d="M 777.921512 137.384591
L 823.72269 137.384591
L 823.72269 45.084691
L 777.921512 45.084691
z
" clip-path="url(#p7931220fef)" style="fill: #86bfa5"/>
   </g>
   <g id="patch_27">
    <path d="M 78.181294 47.637543
L 123.982472 47.637543
L 123.982472 43.982662
L 78.181294 43.982662
z
" clip-path="url(#p7931220fef)" style="fill: #388d78"/>
   </g>
   <g id="patch_28">
    <path d="M 141.794041 45.628017
L 187.595219 45.628017
L 187.595219 43.945121
L 141.794041 43.945121
z
" clip-path="url(#p7931220fef)" style="fill: #388d78"/>
   </g>
   <g id="patch_29">
    <path d="M 205.406788 46.530725
L 251.207966 46.530725
L 251.207966 43.752767
L 205.406788 43.752767
z
" clip-path="url(#p7931220fef)" style="fill: #388d78"/>
   </g>
   <g id="patch_30">
    <path d="M 269.019535 54.723646
L 314.820713 54.723646
L 314.820713 44.246522
L 269.019535 44.246522
z
" clip-path="url(#p7931220fef)" style="fill: #388d78"/>
   </g>
   <g id="patch_31">
    <path d="M 332.632283 52.802557
L 378.43346 52.802557
L 378.43346 44.26525
L 332.632283 44.26525
z
" clip-path="url(#p7931220fef)" style="fill: #388d78"/>
   </g>
   <g id="patch_32">
    <path d="M 396.24503 88.139507
L 442.046208 88.139507
L 442.046208 44.336568
L 396.24503 44.336568
z
" clip-path="url(#p7931220fef)" style="fill: #388d78"/>
   </g>
   <g id="patch_33">
    <path d="M 459.857777 59.132152
L 505.658955 59.132152
L 505.658955 44.346129
L 459.857777 44.346129
z
" clip-path="url(#p7931220fef)" style="fill: #388d78"/>
   </g>
   <g id="patch_34">
    <path d="M 523.470524 49.225245
L 569.271702 49.225245
L 569.271702 44.532334
L 523.470524 44.532334
z
" clip-path="url(#p7931220fef)" style="fill: #388d78"/>
   </g>
   <g id="patch_35">
    <path d="M 587.083271 71.634598
L 632.884449 71.634598
L 632.884449 49.940905
L 587.083271 49.940905
z
" clip-path="url(#p7931220fef)" style="fill: #388d78"/>
   </g>
   <g id="patch_36">
    <path d="M 650.696018 293.291866
L 696.497196 293.291866
L 696.497196 58.783833
L 650.696018 58.783833
z
" clip-path="url(#p7931220fef)" style="fill: #388d78"/>
   </g>
   <g id="patch_37">
    <path d="M 714.308765 60.271547
L 760.109943 60.271547
L 760.109943 44.673241
L 714.308765 44.673241
z
" clip-path="url(#p7931220fef)" style="fill: #388d78"/>
   </g>
   <g id="patch_38">
    <path d="M 777.921512 45.084691
L 823.72269 45.084691
L 823.72269 44.300291
L 777.921512 44.300291
z
" clip-path="url(#p7931220fef)" style="fill: #388d78"/>
   </g>
   <g id="patch_39">
    <path d="M 78.181294 43.982662
L 123.982472 43.982662
L 123.982472 43.075107
L 78.181294 43.075107
z
" clip-path="url(#p7931220fef)" style="fill: #164f49"/>
   </g>
   <g id="patch_40">
    <path d="M 141.794041 43.945121
L 187.595219 43.945121
L 187.595219 43.075107
L 141.794041 43.075107
z
" clip-path="url(#p7931220fef)" style="fill: #164f49"/>
   </g>
   <g id="patch_41">
    <path d="M 205.406788 43.752767
L 251.207966 43.752767
L 251.207966 43.075107
L 205.406788 43.075107
z
" clip-path="url(#p7931220fef)" style="fill: #164f49"/>
   </g>
   <g id="patch_42">
    <path d="M 269.019535 44.246522
L 314.820713 44.246522
L 314.820713 43.075107
L 269.019535 43.075107
z
" clip-path="url(#p7931220fef)" style="fill: #164f49"/>
   </g>
   <g id="patch_43">
    <path d="M 332.632283 44.26525
L 378.43346 44.26525
L 378.43346 43.075107
L 332.632283 43.075107
z
" clip-path="url(#p7931220fef)" style="fill: #164f49"/>
   </g>
   <g id="patch_44">
    <path d="M 396.24503 44.336568
L 442.046208 44.336568
L 442.046208 43.075107
L 396.24503 43.075107
z
" clip-path="url(#p7931220fef)" style="fill: #164f49"/>
   </g>
   <g id="patch_45">
    <path d="M 459.857777 44.346129
L 505.658955 44.346129
L 505.658955 43.075107
L 459.857777 43.075107
z
" clip-path="url(#p7931220fef)" style="fill: #164f49"/>
   </g>
   <g id="patch_46">
    <path d="M 523.470524 44.532334
L 569.271702 44.532334
L 569.271702 43.075107
L 523.470524 43.075107
z
" clip-path="url(#p7931220fef)" style="fill: #164f49"/>
   </g>
   <g id="patch_47">
    <path d="M 587.083271 49.940905
L 632.884449 49.940905
L 632.884449 43.075107
L 587.083271 43.075107
z
" clip-path="url(#p7931220fef)" style="fill: #164f49"/>
   </g>
   <g id="patch_48">
    <path d="M 650.696018 58.783833
L 696.497196 58.783833
L 696.497196 43.075107
L 650.696018 43.075107
z
" clip-path="url(#p7931220fef)" style="fill: #164f49"/>
   </g>
   <g id="patch_49">
    <path d="M 714.308765 44.673241
L 760.109943 44.673241
L 760.109943 43.075107
L 714.308765 43.075107
z
" clip-path="url(#p7931220fef)" style="fill: #164f49"/>
   </g>
   <g id="patch_50">
    <path d="M 777.921512 44.300291
L 823.72269 44.300291
L 823.72269 43.075107
L 777.921512 43.075107
z
" clip-path="url(#p7931220fef)" style="fill: #164f49"/>
   </g>
   <g id="matplotlib.axis_1">
    <g id="xtick_1">
     <g id="line2d_1">
      <defs>
       <path id="m8c2711114e" d="M 0 0
L 0 3.5
" style="stroke: #000000; stroke-width: 0.8"/>
      </defs>
      <g>
       <use xlink:href="#m8c2711114e" x="101.081883" y="364.980857" style="stroke: #000000; stroke-width: 0.8"/>
      </g>
     </g>
     <g id="text_1">
      <text style="font-size: 10px; font-family: 'DejaVu Sans', Arial, sans-serif" transform="translate(78.836193 397.900187) rotate(-45)">01-01</text>
     </g>
    </g>
    <g id="xtick_2">
     <g id="line2d_2">
      <g>
       <use xlink:href="#m8c2711114e" x="164.69463" y="364.980857" style="stroke: #000000; stroke-width: 0.8"/>
      </g>
     </g>
     <g id="text_2">
      <text style="font-size: 10px; font-family: 'DejaVu Sans', Arial, sans-serif" transform="translate(142.44894 397.900187) rotate(-45)">01-31</text>
     </g>
    </g>
    <g id="xtick_3">
     <g id="line2d_3">
      <g>
       <use xlink:href="#m8c2711114e" x="228.307377" y="364.980857" style="stroke: #000000; stroke-width: 0.8"/>
      </g>
     </g>
     <g id="text_3">
      <text style="font-size: 10px; font-family: 'DejaVu Sans', Arial, sans-serif" transform="translate(206.061688 397.900187) rotate(-45)">03-12</text>
     </g>
    </g>
    <g id="xtick_4">
     <g id="line2d_4">
      <g>
       <use xlink:href="#m8c2711114e" x="291.920124" y="364.980857" style="stroke: #000000; stroke-width: 0.8"/>
      </g>
     </g>
     <g id="text_4">
      <text style="font-size: 10px; font-family: 'DejaVu Sans', Arial, sans-serif" transform="translate(269.674435 397.900187) rotate(-45)">04-08</text>
     </g>
    </g>
    <g id="xtick_5">
     <g id="line2d_5">
      <g>
       <use xlink:href="#m8c2711114e" x="355.532872" y="364.980857" style="stroke: #000000; stroke-width: 0.8"/>
      </g>
     </g>
     <g id="text_5">
      <text style="font-size: 10px; font-family: 'DejaVu Sans', Arial, sans-serif" transform="translate(333.287182 397.900187) rotate(-45)">04-09</text>
     </g>
    </g>
    <g id="xtick_6">
     <g id="line2d_6">
      <g>
       <use xlink:href="#m8c2711114e" x="419.145619" y="364.980857" style="stroke: #000000; stroke-width: 0.8"/>
      </g>
     </g>
     <g id="text_6">
      <text style="font-size: 10px; font-family: 'DejaVu Sans', Arial, sans-serif" transform="translate(396.899929 397.900187) rotate(-45)">05-16</text>
     </g>
    </g>
    <g id="xtick_7">
     <g id="line2d_7">
      <g>
       <use xlink:href="#m8c2711114e" x="482.758366" y="364.980857" style="stroke: #000000; stroke-width: 0.8"/>
      </g>
     </g>
     <g id="text_7">
      <text style="font-size: 10px; font-family: 'DejaVu Sans', Arial, sans-serif" transform="translate(460.512676 397.900187) rotate(-45)">05-18</text>
     </g>
    </g>
    <g id="xtick_8">
     <g id="line2d_8">
      <g>
       <use xlink:href="#m8c2711114e" x="546.371113" y="364.980857" style="stroke: #000000; stroke-width: 0.8"/>
      </g>
     </g>
     <g id="text_8">
      <text style="font-size: 10px; font-family: 'DejaVu Sans', Arial, sans-serif" transform="translate(524.125423 397.900187) rotate(-45)">05-21</text>
     </g>
    </g>
    <g id="xtick_9">
     <g id="line2d_9">
      <g>
       <use xlink:href="#m8c2711114e" x="609.98386" y="364.980857" style="stroke: #000000; stroke-width: 0.8"/>
      </g>
     </g>
     <g id="text_9">
      <text style="font-size: 10px; font-family: 'DejaVu Sans', Arial, sans-serif" transform="translate(587.73817 397.900187) rotate(-45)">06-20</text>
     </g>
    </g>
    <g id="xtick_10">
     <g id="line2d_10">
      <g>
       <use xlink:href="#m8c2711114e" x="673.596607" y="364.980857" style="stroke: #000000; stroke-width: 0.8"/>
      </g>
     </g>
     <g id="text_10">
      <text style="font-size: 10px; font-family: 'DejaVu Sans', Arial, sans-serif" transform="translate(651.350917 397.900187) rotate(-45)">08-12</text>
     </g>
    </g>
    <g id="xtick_11">
     <g id="line2d_11">
      <g>
       <use xlink:href="#m8c2711114e" x="737.209354" y="364.980857" style="stroke: #000000; stroke-width: 0.8"/>
      </g>
     </g>
     <g id="text_11">
      <text style="font-size: 10px; font-family: 'DejaVu Sans', Arial, sans-serif" transform="translate(714.963664 397.900187) rotate(-45)">09-08</text>
     </g>
    </g>
    <g id="xtick_12">
     <g id="line2d_12">
      <g>
       <use xlink:href="#m8c2711114e" x="800.822101" y="364.980857" style="stroke: #000000; stroke-width: 0.8"/>
      </g>
     </g>
     <g id="text_12">
      <text style="font-size: 10px; font-family: 'DejaVu Sans', Arial, sans-serif" transform="translate(778.576411 397.900187) rotate(-45)">09-21</text>
     </g>
    </g>
    <g id="text_13">
     <text style="font-size: 11px; font-family: 'DejaVu Sans', Arial, sans-serif; text-anchor: middle; fill: #203b37" x="450.951992" y="411.957182" transform="rotate(-0 450.951992 411.957182)">Acquisition date (2025)</text>
    </g>
   </g>
   <g id="matplotlib.axis_2">
    <g id="ytick_1">
     <g id="line2d_13">
      <defs>
       <path id="m802a5150df" d="M 0 0
L -3.5 0
" style="stroke: #000000; stroke-width: 0.8"/>
      </defs>
      <g>
       <use xlink:href="#m802a5150df" x="40.904224" y="364.980857" style="stroke: #000000; stroke-width: 0.8"/>
      </g>
     </g>
     <g id="text_14">
      <text style="font-size: 10px; font-family: 'DejaVu Sans', Arial, sans-serif; text-anchor: end" x="33.904224" y="368.779685" transform="rotate(-0 33.904224 368.779685)">0.0</text>
     </g>
    </g>
    <g id="ytick_2">
     <g id="line2d_14">
      <g>
       <use xlink:href="#m802a5150df" x="40.904224" y="300.599707" style="stroke: #000000; stroke-width: 0.8"/>
      </g>
     </g>
     <g id="text_15">
      <text style="font-size: 10px; font-family: 'DejaVu Sans', Arial, sans-serif; text-anchor: end" x="33.904224" y="304.398535" transform="rotate(-0 33.904224 304.398535)">0.2</text>
     </g>
    </g>
    <g id="ytick_3">
     <g id="line2d_15">
      <g>
       <use xlink:href="#m802a5150df" x="40.904224" y="236.218557" style="stroke: #000000; stroke-width: 0.8"/>
      </g>
     </g>
     <g id="text_16">
      <text style="font-size: 10px; font-family: 'DejaVu Sans', Arial, sans-serif; text-anchor: end" x="33.904224" y="240.017385" transform="rotate(-0 33.904224 240.017385)">0.4</text>
     </g>
    </g>
    <g id="ytick_4">
     <g id="line2d_16">
      <g>
       <use xlink:href="#m802a5150df" x="40.904224" y="171.837407" style="stroke: #000000; stroke-width: 0.8"/>
      </g>
     </g>
     <g id="text_17">
      <text style="font-size: 10px; font-family: 'DejaVu Sans', Arial, sans-serif; text-anchor: end" x="33.904224" y="175.636235" transform="rotate(-0 33.904224 175.636235)">0.6</text>
     </g>
    </g>
    <g id="ytick_5">
     <g id="line2d_17">
      <g>
       <use xlink:href="#m802a5150df" x="40.904224" y="107.456257" style="stroke: #000000; stroke-width: 0.8"/>
      </g>
     </g>
     <g id="text_18">
      <text style="font-size: 10px; font-family: 'DejaVu Sans', Arial, sans-serif; text-anchor: end" x="33.904224" y="111.255085" transform="rotate(-0 33.904224 111.255085)">0.8</text>
     </g>
    </g>
    <g id="ytick_6">
     <g id="line2d_18">
      <g>
       <use xlink:href="#m802a5150df" x="40.904224" y="43.075107" style="stroke: #000000; stroke-width: 0.8"/>
      </g>
     </g>
     <g id="text_19">
      <text style="font-size: 10px; font-family: 'DejaVu Sans', Arial, sans-serif; text-anchor: end" x="33.904224" y="46.873935" transform="rotate(-0 33.904224 46.873935)">1.0</text>
     </g>
    </g>
    <g id="text_20">
     <text style="font-size: 11px; font-family: 'DejaVu Sans', Arial, sans-serif; text-anchor: middle; fill: #203b37" x="11.358521" y="204.027982" transform="rotate(-90 11.358521 204.027982)">Fraction of common valid pixels</text>
    </g>
   </g>
   <g id="patch_51">
    <path d="M 40.904224 364.980857
L 40.904224 43.075107
" style="fill: none; stroke: #000000; stroke-width: 0.8; stroke-linejoin: miter; stroke-linecap: square"/>
   </g>
   <g id="patch_52">
    <path d="M 40.904224 364.980857
L 860.99976 364.980857
" style="fill: none; stroke: #000000; stroke-width: 0.8; stroke-linejoin: miter; stroke-linecap: square"/>
   </g>
   <g id="text_21">
    <text style="font-size: 13px; font-family: 'DejaVu Sans', Arial, sans-serif; text-anchor: middle; fill: #203b37" x="450.951992" y="37.075107" transform="rotate(-0 450.951992 37.075107)">Class balance across acquisition dates</text>
   </g>
   <g id="legend_1">
    <g id="patch_53">
     <path d="M 258.834805 14.60674
L 278.834805 14.60674
L 278.834805 7.60674
L 258.834805 7.60674
z
" style="fill: #8b9693"/>
    </g>
    <g id="text_22">
     <text style="font-size: 10px; font-family: 'DejaVu Sans', Arial, sans-serif; text-anchor: start; fill: #203b37" x="286.834805" y="14.60674" transform="rotate(-0 286.834805 14.60674)">Background</text>
    </g>
    <g id="patch_54">
     <path d="M 366.49418 14.60674
L 386.49418 14.60674
L 386.49418 7.60674
L 366.49418 7.60674
z
" style="fill: #86bfa5"/>
    </g>
    <g id="text_23">
     <text style="font-size: 10px; font-family: 'DejaVu Sans', Arial, sans-serif; text-anchor: start; fill: #203b37" x="394.49418" y="14.60674" transform="rotate(-0 394.49418 14.60674)">Low algae</text>
    </g>
    <g id="patch_55">
     <path d="M 464.901992 14.60674
L 484.901992 14.60674
L 484.901992 7.60674
L 464.901992 7.60674
z
" style="fill: #388d78"/>
    </g>
    <g id="text_24">
     <text style="font-size: 10px; font-family: 'DejaVu Sans', Arial, sans-serif; text-anchor: start; fill: #203b37" x="492.901992" y="14.60674" transform="rotate(-0 492.901992 14.60674)">Mid algae</text>
    </g>
    <g id="patch_56">
     <path d="M 561.370742 14.60674
L 581.370742 14.60674
L 581.370742 7.60674
L 561.370742 7.60674
z
" style="fill: #164f49"/>
    </g>
    <g id="text_25">
     <text style="font-size: 10px; font-family: 'DejaVu Sans', Arial, sans-serif; text-anchor: start; fill: #203b37" x="589.370742" y="14.60674" transform="rotate(-0 589.370742 14.60674)">High algae</text>
    </g>
   </g>
  </g>
 </g>
 <defs>
  <clipPath id="p7931220fef">
   <rect x="40.904224" y="43.075107" width="820.095536" height="321.905749"/>
  </clipPath>
 </defs>
</svg>
